<?xml version="1.0" standalone="no"?>
<!DOCTYPE svg PUBLIC "-//W3C//DTD SVG 20010904//EN"
 "http://www.w3.org/TR/2001/REC-SVG-20010904/DTD/svg10.dtd">
<svg version="1.0" xmlns="http://www.w3.org/2000/svg"
 width="2100.000000pt" height="2100.000000pt" viewBox="0 0 2100.000000 2100.000000"
 preserveAspectRatio="xMidYMid meet">
<metadata>
Created by potrace 1.11, written by Peter Selinger 2001-2013
</metadata>
<g transform="translate(0.000000,2100.000000) scale(0.100000,-0.100000)"
fill="#000000" stroke="none">
<path d="M4255 19824 c-344 -40 -616 -145 -881 -339 -107 -78 -284 -260 -366
-375 -163 -228 -273 -510 -308 -789 -15 -111 -14 -15564 1 -15666 98 -704 630
-1284 1324 -1443 149 -34 274 -45 444 -39 314 11 575 90 851 259 246 150
12162 7595 12230 7641 742 499 978 1477 545 2262 -123 224 -305 425 -520 576
-129 90 -12293 7680 -12390 7730 -179 93 -387 155 -600 179 -85 9 -263 11
-330 4z m5488 -7074 c1978 -1235 3596 -2247 3596 -2250 0 -4 -7181 -4490
-7201 -4498 -4 -2 -8 2022 -8 4498 0 2476 4 4500 8 4498 5 -1 1627 -1013 3605
-2248z"/>
</g>
</svg>
